<?xml version="1.0" encoding="UTF-8"?>
<svg width="21px" height="24px" viewBox="0 0 21 24" version="1.1" xmlns="http://www.w3.org/2000/svg" xmlns:xlink="http://www.w3.org/1999/xlink">
    <!-- Generator: Sketch 63.1 (92452) - https://sketch.com -->
    <title>Mask</title>
    <desc>Created with Sketch.</desc>
    <defs>
        <path d="M16.6269044,4 C17.1781374,4 17.9486092,4.31380285 18.3407507,4.69406128 L20.2842493,6.57866599 C20.6795475,6.96198545 21,7.72492211 21,8.27244672 L21,27.0002806 C21,27.5524104 20.5613852,28 20.0012539,28 L0.998746091,28 C0.447153856,28 0,27.5525308 0,26.9993054 L0,5.00069463 C0,4.44802625 0.453388279,4 0.998095617,4 L16.6269044,4 Z M16.7307692,5.5 L1.5,5.5 L1.5,26.5 L19.5,26.5 L19.499,9.25 L16.875,9.25 L16.875,5.642 L16.7307692,5.5 Z M17.625,6.25 L17.625,8.5 L19.875,8.5 L17.625,6.25 Z M4.5,11.5 L16.5,11.5 C16.9142136,11.5 17.25,11.8357864 17.25,12.25 C17.25,12.6642136 16.9142136,13 16.5,13 L4.5,13 C4.08578644,13 3.75,12.6642136 3.75,12.25 C3.75,11.8357864 4.08578644,11.5 4.5,11.5 Z M4.5,14.5 L15,14.5 C15.4142136,14.5 15.75,14.8357864 15.75,15.25 C15.75,15.6642136 15.4142136,16 15,16 L4.5,16 C4.08578644,16 3.75,15.6642136 3.75,15.25 C3.75,14.8357864 4.08578644,14.5 4.5,14.5 Z M4.5,17.5 L13.5,17.5 C13.9142136,17.5 14.25,17.8357864 14.25,18.25 C14.25,18.6642136 13.9142136,19 13.5,19 L4.5,19 C4.08578644,19 3.75,18.6642136 3.75,18.25 C3.75,17.8357864 4.08578644,17.5 4.5,17.5 Z" id="path-1"></path>
    </defs>
    <g id="Portfolio---prototype" stroke="none" stroke-width="1" fill="none" fill-rule="evenodd">
        <g id="Proto/About" transform="translate(-86.000000, -310.000000)">
            <g id="Resume" transform="translate(86.000000, 306.000000)">
                <mask id="mask-2" fill="white">
                    <use xlink:href="#path-1"></use>
                </mask>
                <use id="Mask" fill="#00CFD4" xlink:href="#path-1"></use>
            </g>
        </g>
    </g>
</svg>